<?xml version="1.0" encoding="UTF-8" standalone="no"?>
<!-- Created with Inkscape (http://www.inkscape.org/) -->

<svg
   version="1.1"
   id="svg1"
   width="1122.52"
   height="793.70667"
   viewBox="0 0 1122.52 793.70667"
   sodipodi:docname="907e9142-20cd-42d3-91a3-6ecd96f91d4f.ai"
   xmlns:inkscape="http://www.inkscape.org/namespaces/inkscape"
   xmlns:sodipodi="http://sodipodi.sourceforge.net/DTD/sodipodi-0.dtd"
   xmlns="http://www.w3.org/2000/svg"
   xmlns:svg="http://www.w3.org/2000/svg">
  <defs
     id="defs1">
    <clipPath
       clipPathUnits="userSpaceOnUse"
       id="clipPath2">
      <path
         d="M 0,595.28 H 841.89 V 0 H 0 Z"
         transform="translate(-409.23051,-408.18331)"
         id="path2" />
    </clipPath>
    <clipPath
       clipPathUnits="userSpaceOnUse"
       id="clipPath4">
      <path
         d="M 0,595.28 H 841.89 V 0 H 0 Z"
         transform="translate(-337.69631,-380.73131)"
         id="path4" />
    </clipPath>
    <clipPath
       clipPathUnits="userSpaceOnUse"
       id="clipPath6">
      <path
         d="M 0,595.28 H 841.89 V 0 H 0 Z"
         transform="translate(-669.56201,-381.02121)"
         id="path6" />
    </clipPath>
    <clipPath
       clipPathUnits="userSpaceOnUse"
       id="clipPath8">
      <path
         d="M 0,595.28 H 841.89 V 0 H 0 Z"
         transform="translate(-489.32571,-416.46661)"
         id="path8" />
    </clipPath>
    <clipPath
       clipPathUnits="userSpaceOnUse"
       id="clipPath10">
      <path
         d="M 0,595.28 H 841.89 V 0 H 0 Z"
         transform="translate(-226.16601,-416.24011)"
         id="path10" />
    </clipPath>
    <clipPath
       clipPathUnits="userSpaceOnUse"
       id="clipPath12">
      <path
         d="M 0,595.28 H 841.89 V 0 H 0 Z"
         id="path12" />
    </clipPath>
    <clipPath
       clipPathUnits="userSpaceOnUse"
       id="clipPath14">
      <path
         d="M 0,595.28 H 841.89 V 0 H 0 Z"
         transform="translate(-675.80231,-276.66671)"
         id="path14" />
    </clipPath>
    <clipPath
       clipPathUnits="userSpaceOnUse"
       id="clipPath16">
      <path
         d="M 0,595.28 H 841.89 V 0 H 0 Z"
         transform="translate(-676.05032,-298.06521)"
         id="path16" />
    </clipPath>
    <clipPath
       clipPathUnits="userSpaceOnUse"
       id="clipPath18">
      <path
         d="M 0,595.28 H 841.89 V 0 H 0 Z"
         transform="translate(-433.72811,-286.63751)"
         id="path18" />
    </clipPath>
    <clipPath
       clipPathUnits="userSpaceOnUse"
       id="clipPath20">
      <path
         d="M 0,595.28 H 841.89 V 0 H 0 Z"
         transform="translate(-390.54501,-347.34061)"
         id="path20" />
    </clipPath>
    <clipPath
       clipPathUnits="userSpaceOnUse"
       id="clipPath22">
      <path
         d="M 0,595.28 H 841.89 V 0 H 0 Z"
         transform="translate(-525.21442,-347.55441)"
         id="path22" />
    </clipPath>
  </defs>
  <sodipodi:namedview
     id="namedview1"
     pagecolor="#ffffff"
     bordercolor="#000000"
     borderopacity="0.25"
     inkscape:showpageshadow="2"
     inkscape:pageopacity="0.0"
     inkscape:pagecheckerboard="0"
     inkscape:deskcolor="#d1d1d1">
    <inkscape:page
       x="0"
       y="0"
       inkscape:label="1"
       id="page1"
       width="1122.52"
       height="793.70667"
       margin="349.70132 221.12 227.49333 251.28934"
       bleed="0" />
  </sodipodi:namedview>
  <g
     id="layer-MC0"
     inkscape:groupmode="layer"
     inkscape:label="Layer 1">
    <path
       id="path1"
       d="M 0,0 C 2.689,-4.496 4.806,-8.035 7.184,-12.012 H -7.31 C -4.924,-8.091 -2.761,-4.537 0,0 m 10.969,-19.455 c 0.004,-0.003 0.009,-0.005 0.012,-0.008 l 5.04,-7.965 H 26.83 l -0.352,0.493 -3.661,6.039 C 15.307,-8.506 7.953,3.625 0.163,16.477 -6.41,5.687 -12.688,-4.615 -18.881,-14.781 l -6.56,-10.766 -1.162,-1.881 h 1.062 c 0.601,0 0.521,0.011 1.111,0.011 0.978,-10e-4 0.974,-0.011 1.946,-0.011 h 6.939 l 5.273,7.814 c 10e-4,0.001 0.002,0.001 0.002,0.001 z"
       style="fill:#3780c0;fill-opacity:1;fill-rule:evenodd;stroke:none"
       transform="matrix(1.3333333,0,0,-1.3333333,545.64067,249.46227)"
       clip-path="url(#clipPath2)" />
    <path
       id="path3"
       d="m 0,0 -0.954,1.33 c -1.715,2.499 -7.942,11.573 -11.409,16.627 8.43,2.526 11.973,6.933 10.817,13.563 -0.969,5.554 -5.294,9.309 -11.771,10.106 -7.161,0.882 -14.628,0.201 -21.727,0.201 V 36.311 0.098 0 h 0.143 8.71 1.296 v 35.172 0.159 h 7.307 0.419 c 2.263,-0.427 4.064,-1.498 4.965,-3.862 3.002,-7.868 -6.043,-8.531 -12.684,-10.837 3.563,-5.317 6.901,-10.336 10.283,-15.337 1.109,-1.64 1.936,-2.852 2.729,-3.719 l 1.391,-1.536 0.028,-0.019 h 1.419 z"
       style="fill:#3780c0;fill-opacity:1;fill-rule:evenodd;stroke:none"
       transform="matrix(1.3333333,0,0,-1.3333333,450.26173,286.06493)"
       clip-path="url(#clipPath4)" />
    <path
       id="path5"
       d="m 0,0 c 0.004,0 0.006,0 0.01,0.002 -0.547,0.564 -1.092,1.123 -1.637,1.685 l -0.017,0.02 c -6.891,7.092 -13.516,13.914 -20.186,20.782 6.461,6.179 12.781,12.222 19.209,18.368 l 1.424,1.088 H -12.5 l -9.379,-8.841 -0.002,10e-4 c -2.691,-2.627 -5.789,-5.308 -9.344,-8.677 v 17.153 h -8.894 V -0.256 h 9.049 v 19.973 c 2.433,-2.531 4.746,-4.785 6.894,-6.93 l 0.004,-0.004 c 1.707,-1.704 3.307,-3.339 4.781,-4.984 l 7.758,-8.095 h 2.305 7.445 2.168 z"
       style="fill:#3780c0;fill-opacity:1;fill-rule:evenodd;stroke:none"
       transform="matrix(1.3333333,0,0,-1.3333333,892.74933,285.6784)"
       clip-path="url(#clipPath6)" />
    <path
       id="path7"
       d="m 0,0 v -10.285 h 17.908 v -6.793 H -0.227 V -35.592 H -9.193 V 6.203 h 29.271 l 0,-6.203 z"
       style="fill:#3780c0;fill-opacity:1;fill-rule:evenodd;stroke:none"
       transform="matrix(1.3333333,0,0,-1.3333333,652.43427,238.41787)"
       clip-path="url(#clipPath8)" />
    <path
       id="path9"
       d="M 0,0 H -15.496 V 6.449 H 24.828 V 0.137 H 9.538 V -35.245 H 0 Z"
       style="fill:#3780c0;fill-opacity:1;fill-rule:evenodd;stroke:none"
       transform="matrix(1.3333333,0,0,-1.3333333,301.55467,238.71987)"
       clip-path="url(#clipPath10)" />
    <path
       id="path11"
       d="m 571.335,380.783 h -8.352 v 41.976 h 8.352 z"
       style="fill:#3780c0;fill-opacity:1;fill-rule:evenodd;stroke:none"
       transform="matrix(1.3333333,0,0,-1.3333333,0,793.70667)"
       clip-path="url(#clipPath12)" />
    <path
       id="path13"
       d="m 0,0 c -7.967,-4.075 -15.785,-11.293 -23.92,-11.665 -30.437,-1.398 -60.975,-0.558 -91.492,-0.558 -2.139,17.189 -2.024,17.397 14.244,17.42 32.859,0.047 65.721,0.015 98.578,0.015 C -1.729,3.474 -0.863,1.738 0,0"
       style="fill:#3780c0;fill-opacity:1;fill-rule:evenodd;stroke:none"
       transform="matrix(1.3333333,0,0,-1.3333333,901.06973,424.81773)"
       clip-path="url(#clipPath14)" />
    <path
       id="path15"
       d="m 0,0 h -37.871 c -16.676,0 -33.352,-0.211 -50.024,0.05 -17.752,0.281 -28.414,10.053 -28.47,25.514 -0.049,14.735 11.59,25.417 28.607,26.245 1.315,0.061 2.633,0.067 3.947,0.067 26.266,0.003 52.528,0.003 80.719,0.003 -9.601,-11.604 -17.191,-21.501 -33.525,-19.939 -15.653,1.501 -31.582,0.754 -47.344,0.015 -4.139,-0.196 -8.109,-4.022 -12.156,-6.18 4.244,-2.685 8.39,-7.494 12.744,-7.687 19.269,-0.856 38.601,-0.284 57.906,-0.428 C -14.186,17.575 -5.42,13.374 0,0"
       style="fill:#3780c0;fill-opacity:1;fill-rule:evenodd;stroke:none"
       transform="matrix(1.3333333,0,0,-1.3333333,901.4004,396.2864)"
       clip-path="url(#clipPath16)" />
    <path
       id="path17"
       d="M 0,0 V 62.768 C 15.26,51.996 28.42,42.709 43.596,31.996 28.869,21.19 15.738,11.551 0,0"
       style="fill:#b13021;fill-opacity:1;fill-rule:evenodd;stroke:none"
       transform="matrix(1.3333333,0,0,-1.3333333,578.30413,411.52333)"
       clip-path="url(#clipPath18)" />
    <path
       id="path19"
       d="m 0,0 c -18.859,2.82 -38.408,2.41 -57.561,1.495 -14.491,-0.694 -27.841,-7.642 -34.947,-20.551 -0.779,-1.419 -1.387,-2.931 -1.883,-4.503 -0.139,-0.604 -1.557,-6.854 -2.357,-14.423 v -11.37 h 22.572 3.221 v 8.147 8.212 c 4.447,14.556 11.129,15.989 35.036,16.018 6.585,0.009 13.169,0.077 19.751,-0.029 15.494,-0.246 25.679,-8.3 26.992,-21.231 1.319,-12.982 -5.597,-21.522 -21.161,-25.549 -4.195,-1.088 -8.64,-1.681 -12.97,-1.687 -39.503,-0.064 -79.004,-0.006 -118.506,0.176 -4.781,0.024 -9.679,0.487 -14.316,1.607 -14.309,3.448 -21.887,13.489 -20.306,26.221 1.499,12.072 10.986,20.041 24.98,20.416 6.222,0.167 12.508,0.529 18.736,0.451 h 24.326 l 3.711,0.037 12.449,15.15 c 0.003,0.003 0.003,0.006 0.004,0.006 l 3.293,4.008 h -1.152 c -18.162,0 -35.135,0.026 -52.105,-0.021 -5.266,-0.012 -10.629,0.369 -15.776,-0.48 -17.496,-2.891 -33.568,-9.066 -41.014,-26.714 -10.925,-25.887 8.253,-55.081 39.07,-58.072 23.524,-2.286 47.317,-2.432 70.986,-2.368 28.031,0.076 56.122,0.522 84.069,2.474 21.586,1.507 39.657,20.695 40.472,39.93 C 36.581,-19.965 24.574,-3.673 0,0"
       style="fill:#3780c0;fill-opacity:1;fill-rule:nonzero;stroke:none"
       transform="matrix(1.3333333,0,0,-1.3333333,520.72667,330.58587)"
       clip-path="url(#clipPath20)" />
    <path
       id="path21"
       d="m 0,0 c -3.35,0.959 -6.826,2.029 -10.258,2.067 -17.457,0.211 -34.918,0.1 -52.377,0.1 -0.043,-0.106 -0.086,-0.211 -0.127,-0.316 h -5.426 l 11.606,-7.348 19.482,-13.79 6.362,-5.102 c 1.812,-1.858 2.621,-3.479 2.357,-5.144 l -21.265,-18.502 -41.338,-35.966 h 39.42 v 22.128 c 5.388,0 10.099,-0.226 14.785,0.044 11.756,0.681 23.664,0.639 35.209,2.63 15.836,2.729 28.343,15.907 28.847,28.267 C 27.846,-17.016 17.273,-4.951 0,0"
       style="fill:#3780c0;fill-opacity:1;fill-rule:nonzero;stroke:none"
       transform="matrix(1.3333333,0,0,-1.3333333,700.28587,330.3008)"
       clip-path="url(#clipPath22)" />
  </g>
</svg>
